<svg xmlns="http://www.w3.org/2000/svg" viewBox="0 0 300 300">
    <!-- Background circle -->
    <circle cx="150" cy="150" r="140" fill="#f8f9fa" stroke="#e2e8f0" stroke-width="2" />

    <!-- WordPress color scheme -->
    <defs>
        <linearGradient id="blueGradient" x1="0%" y1="0%" x2="100%" y2="100%">
            <stop offset="0%" stop-color="#0073aa" />
            <stop offset="100%" stop-color="#00a0d2" />
        </linearGradient>
    </defs>

    <!-- Redirect Arrow -->
    <g transform="translate(150, 150) rotate(-10) translate(-150, -150)">
        <!-- Starting path -->
        <path
            d="M80,150 C80,120 90,100 120,100 L160,100"
            fill="none"
            stroke="url(#blueGradient)"
            stroke-width="16"
            stroke-linecap="round"
        />

        <!-- Arrow head -->
        <path
            d="M150,80 L180,100 L150,120"
            fill="none"
            stroke="url(#blueGradient)"
            stroke-width="16"
            stroke-linecap="round"
            stroke-linejoin="round"
        />

        <!-- Ending path -->
        <path
            d="M180,100 L200,100 C240,100 250,120 250,150"
            fill="none"
            stroke="url(#blueGradient)"
            stroke-width="16"
            stroke-linecap="round"
        />

        <!-- Speed lines -->
        <path
            d="M140,130 L155,130"
            stroke="#00a0d2"
            stroke-width="6"
            stroke-linecap="round"
            opacity="0.8"
        />
        <path
            d="M130,150 L150,150"
            stroke="#00a0d2"
            stroke-width="6"
            stroke-linecap="round"
            opacity="0.7"
        />
        <path
            d="M140,170 L155,170"
            stroke="#00a0d2"
            stroke-width="6"
            stroke-linecap="round"
            opacity="0.6"
        />
    </g>

    <!-- Quick lightning bolt symbol -->
    <path
        d="M165,155 L150,175 L160,180 L140,210 L170,170 L155,165 L175,140 Z"
        fill="#ffc107"
        stroke="#f57c00"
        stroke-width="2"
    />

    <!-- Border to enhance visual presence -->
    <circle cx="150" cy="150" r="140" fill="none" stroke="#ddd" stroke-width="4" />
</svg>
